<?xml version="1.0" encoding="utf-8"?>
<svg version="1.1" xmlns="http://www.w3.org/2000/svg">

<symbol id="chevron" viewBox="0 0 16 18">
  <path fill="currentColor" d="M12,9a.994.994,0,0,1-.293.7l-3.991,3.99a1,1,0,1,1-1.436-1.386l.024-.024L9.59,9,6.3,5.715A1,1,0,0,1,7.691,4.28l.024.025,3.991,3.99A.994.994,0,0,1,12,9Z" />
</symbol>

<symbol id="expand" viewBox="0 0 17 17">
    <path fill="currentColor" d="M6.368,10.337a.444.444,0,0,0-.628,0L2.858,13.219,1.534,11.892a.306.306,0,0,0-.22-.092A.311.311,0,0,0,1,12.112v3.929a.222.222,0,0,0,.2.2H5.134a.311.311,0,0,0,.311-.311.3.3,0,0,0-.092-.218L4.026,14.388l2.882-2.882a.444.444,0,0,0,0-.628Z" />
    <path fill="currentColor" d="M16.041,1H12.112a.311.311,0,0,0-.311.311v0a.3.3,0,0,0,.092.218l1.326,1.326L10.337,5.739a.444.444,0,0,0,0,.628l.54.54a.444.444,0,0,0,.628,0l2.882-2.882,1.326,1.327a.306.306,0,0,0,.22.092.311.311,0,0,0,.311-.311h0V1.2a.222.222,0,0,0-.2-.2Z" />
</symbol>

<symbol id="close" viewBox="225.105 17.634 17.606 17.607">
  <path fill="currentColor" d="M18.436,3.419,12,9.855,5.564,3.419a.758.758,0,0,0-1.072,0L3.419,4.491a.758.758,0,0,0,0,1.072L9.855,12,3.419,18.436a.758.758,0,0,0,0,1.072l1.072,1.073a.758.758,0,0,0,1.072,0L12,14.145l6.436,6.436a.758.758,0,0,0,1.072,0l1.073-1.072a.758.758,0,0,0,0-1.072L14.145,12l6.436-6.436a.758.758,0,0,0,0-1.072L19.509,3.419a.758.758,0,0,0-1.073,0Z" transform="matrix(1, 0, 0, 1, 221.908051, 14.43703)"/>
</symbol>

</svg>